<svg xmlns="http://www.w3.org/2000/svg" version="1.1" xmlns:xlink="http://www.w3.org/1999/xlink" xmlns:svgjs="http://svgjs.dev/svgjs" width="1000" height="1000" viewBox="0 0 1000 1000"><rect width="1000" height="1000" fill="#000000"></rect><g transform="matrix(0.7,0,0,0.7,149.57576861516338,449.7172075290925)"><svg viewBox="0 0 396 57" data-background-color="#ffffff" preserveAspectRatio="xMidYMid meet" height="143" width="1000" xmlns="http://www.w3.org/2000/svg" xmlns:xlink="http://www.w3.org/1999/xlink"><g id="tight-bounds" transform="matrix(1,0,0,1,0.23999382455076557,0.13255914926801893)"><svg viewBox="0 0 395.52 56.73488105736037" height="56.73488105736037" width="395.52"><g><svg viewBox="0 0 395.52 56.73488105736037" height="56.73488105736037" width="395.52"><g><svg viewBox="0 0 395.52 56.73488105736037" height="56.73488105736037" width="395.52"><g id="textblocktransform"><svg viewBox="0 0 395.52 56.73488105736037" height="56.73488105736037" width="395.52" id="textblock"><g><svg viewBox="0 0 395.52 26.228796888024448" height="26.228796888024448" width="395.52"><g transform="matrix(1,0,0,1,0,0)"><svg width="395.52" viewBox="2.4000000953674316 -35.400001525878906 541.1699829101562 35.80000305175781" height="26.228796888024448" data-palette-color="#085f63"><g class="undefined-text-0" data-fill-palette-color="primary" id="text-0"><path d="M29.5-7.2L29.5-17.7 34.3-17.7 34.3 0 29.9 0 29.9-2.35Q26.05 0.4 20.15 0.4L20.15 0.4Q15.4 0.4 11.33-1.7 7.25-3.8 4.83-7.83 2.4-11.85 2.4-17.35L2.4-17.35Q2.4-22.55 4.83-26.65 7.25-30.75 11.53-33.08 15.8-35.4 21.15-35.4L21.15-35.4Q25.35-35.4 28.78-34.02 32.2-32.65 34.6-30L34.6-30 31.5-26.9Q27.3-30.95 21.35-30.95L21.35-30.95Q17.35-30.95 14.18-29.2 11-27.45 9.2-24.35 7.4-21.25 7.4-17.35L7.4-17.35Q7.4-13.2 9.22-10.15 11.05-7.1 14.05-5.53 17.05-3.95 20.55-3.95L20.55-3.95Q23-3.95 25.33-4.78 27.65-5.6 29.5-7.2L29.5-7.2ZM68.95-35L73.95-35 73.95 0 68.95 0 68.95-15.6 48.85-15.6 48.85 0 43.85 0 43.85-35 48.85-35 48.85-19.95 68.95-19.95 68.95-35ZM100.25 0.4Q94.95 0.4 90.7-1.93 86.45-4.25 84.02-8.35 81.6-12.45 81.6-17.5L81.6-17.5Q81.6-22.55 84.02-26.65 86.45-30.75 90.7-33.08 94.95-35.4 100.25-35.4L100.25-35.4Q105.5-35.4 109.75-33.08 114-30.75 116.4-26.68 118.8-22.6 118.8-17.5L118.8-17.5Q118.8-12.4 116.4-8.33 114-4.25 109.75-1.93 105.5 0.4 100.25 0.4L100.25 0.4ZM100.25-4.05Q104.1-4.05 107.17-5.8 110.25-7.55 112.02-10.63 113.8-13.7 113.8-17.5L113.8-17.5Q113.8-21.3 112.02-24.38 110.25-27.45 107.17-29.2 104.1-30.95 100.25-30.95L100.25-30.95Q96.4-30.95 93.27-29.2 90.15-27.45 88.37-24.38 86.6-21.3 86.6-17.5L86.6-17.5Q86.6-13.7 88.37-10.63 90.15-7.55 93.27-5.8 96.4-4.05 100.25-4.05L100.25-4.05ZM136.64 0.4Q132.69 0.4 129.02-0.83 125.34-2.05 123.24-4L123.24-4 125.09-7.9Q127.09-6.1 130.22-4.98 133.34-3.85 136.64-3.85L136.64-3.85Q140.99-3.85 143.14-5.33 145.29-6.8 145.29-9.25L145.29-9.25Q145.29-11.05 144.12-12.18 142.94-13.3 141.22-13.9 139.49-14.5 136.34-15.25L136.34-15.25Q132.39-16.2 129.97-17.15 127.54-18.1 125.82-20.08 124.09-22.05 124.09-25.4L124.09-25.4Q124.09-28.2 125.57-30.45 127.04-32.7 130.04-34.05 133.04-35.4 137.49-35.4L137.49-35.4Q140.59-35.4 143.59-34.6 146.59-33.8 148.74-32.3L148.74-32.3 147.09-28.3Q144.89-29.7 142.39-30.43 139.89-31.15 137.49-31.15L137.49-31.15Q133.24-31.15 131.12-29.6 128.99-28.05 128.99-25.6L128.99-25.6Q128.99-23.8 130.19-22.68 131.39-21.55 133.17-20.93 134.94-20.3 137.99-19.6L137.99-19.6Q141.94-18.65 144.34-17.7 146.74-16.75 148.47-14.8 150.19-12.85 150.19-9.55L150.19-9.55Q150.19-6.8 148.69-4.53 147.19-2.25 144.14-0.93 141.09 0.4 136.64 0.4L136.64 0.4ZM182.34-31.4L180.59-27.45Q175.49-30.35 169.69-30.9L169.69-30.9 169.69 0 164.74 0 164.74-30.9Q158.89-30.35 153.79-27.45L153.79-27.45 152.04-31.4Q158.74-35.4 167.14-35.4L167.14-35.4Q175.64-35.4 182.34-31.4L182.34-31.4Z" fill="#ffffff" data-fill-palette-color="primary"></path><path d="M201.24-35Q208.04-35 211.94-31.75 215.84-28.5 215.84-22.8L215.84-22.8Q215.84-17.1 211.94-13.85 208.04-10.6 201.24-10.6L201.24-10.6 192.59-10.6 192.59 0 187.59 0 187.59-35 201.24-35ZM201.09-14.95Q205.84-14.95 208.34-16.98 210.84-19 210.84-22.8L210.84-22.8Q210.84-26.6 208.34-28.63 205.84-30.65 201.09-30.65L201.09-30.65 192.59-30.65 192.59-14.95 201.09-14.95ZM252.54 0L247.09 0 239.54-10.75Q238.14-10.65 237.34-10.65L237.34-10.65 228.69-10.65 228.69 0 223.69 0 223.69-35 237.34-35Q244.14-35 248.04-31.75 251.94-28.5 251.94-22.8L251.94-22.8Q251.94-18.75 249.94-15.9 247.94-13.05 244.24-11.75L244.24-11.75 252.54 0ZM237.19-14.9Q241.94-14.9 244.44-16.95 246.94-19 246.94-22.8L246.94-22.8Q246.94-26.6 244.44-28.63 241.94-30.65 237.19-30.65L237.19-30.65 228.69-30.65 228.69-14.9 237.19-14.9ZM275.84 0.4Q270.54 0.4 266.29-1.93 262.04-4.25 259.61-8.35 257.19-12.45 257.19-17.5L257.19-17.5Q257.19-22.55 259.61-26.65 262.04-30.75 266.29-33.08 270.54-35.4 275.84-35.4L275.84-35.4Q281.09-35.4 285.34-33.08 289.59-30.75 291.99-26.68 294.39-22.6 294.39-17.5L294.39-17.5Q294.39-12.4 291.99-8.33 289.59-4.25 285.34-1.93 281.09 0.4 275.84 0.4L275.84 0.4ZM275.84-4.05Q279.69-4.05 282.76-5.8 285.84-7.55 287.61-10.63 289.39-13.7 289.39-17.5L289.39-17.5Q289.39-21.3 287.61-24.38 285.84-27.45 282.76-29.2 279.69-30.95 275.84-30.95L275.84-30.95Q271.99-30.95 268.86-29.2 265.74-27.45 263.96-24.38 262.19-21.3 262.19-17.5L262.19-17.5Q262.19-13.7 263.96-10.63 265.74-7.55 268.86-5.8 271.99-4.05 275.84-4.05L275.84-4.05ZM302.03 0L302.03-35 316.78-35Q322.33-35 326.63-32.8 330.93-30.6 333.31-26.63 335.68-22.65 335.68-17.5L335.68-17.5Q335.68-12.35 333.31-8.38 330.93-4.4 326.63-2.2 322.33 0 316.78 0L316.78 0 302.03 0ZM307.03-4.35L316.48-4.35Q320.73-4.35 323.96-6 327.18-7.65 328.93-10.63 330.68-13.6 330.68-17.5L330.68-17.5Q330.68-21.4 328.93-24.38 327.18-27.35 323.96-29 320.73-30.65 316.48-30.65L316.48-30.65 307.03-30.65 307.03-4.35ZM367.58-35L372.53-35 372.53 0 367.73 0 367.73-4.95Q364.18 0.4 356.33 0.4L356.33 0.4Q350.08 0.4 346.56-3.4 343.03-7.2 343.03-14.25L343.03-14.25 343.03-35 348.03-35 348.03-14.4Q348.03-9.35 350.53-6.7 353.03-4.05 357.38-4.05L357.38-4.05Q362.08-4.05 364.83-6.85 367.58-9.65 367.58-15.15L367.58-15.15 367.58-35ZM398.68 0.4Q393.43 0.4 389.2-1.93 384.98-4.25 382.58-8.33 380.18-12.4 380.18-17.5L380.18-17.5Q380.18-22.6 382.58-26.68 384.98-30.75 389.23-33.08 393.48-35.4 398.73-35.4L398.73-35.4Q402.83-35.4 406.23-34.02 409.63-32.65 412.03-29.95L412.03-29.95 408.78-26.8Q404.83-30.95 398.93-30.95L398.93-30.95Q395.03-30.95 391.88-29.2 388.73-27.45 386.95-24.38 385.18-21.3 385.18-17.5L385.18-17.5Q385.18-13.7 386.95-10.63 388.73-7.55 391.88-5.8 395.03-4.05 398.93-4.05L398.93-4.05Q404.78-4.05 408.78-8.25L408.78-8.25 412.03-5.1Q409.63-2.4 406.2-1 402.78 0.4 398.68 0.4L398.68 0.4ZM444.03-31.4L442.28-27.45Q437.18-30.35 431.37-30.9L431.37-30.9 431.37 0 426.43 0 426.43-30.9Q420.58-30.35 415.48-27.45L415.48-27.45 413.73-31.4Q420.43-35.4 428.83-35.4L428.83-35.4Q437.33-35.4 444.03-31.4L444.03-31.4ZM464.47-30.65L457.72-30.65 457.72-4.35 464.47-4.35 464.47 0 445.97 0 445.97-4.35 452.72-4.35 452.72-30.65 445.97-30.65 445.97-35 464.47-35 464.47-30.65ZM487.67 0.4Q482.37 0.4 478.12-1.93 473.87-4.25 471.45-8.35 469.02-12.45 469.02-17.5L469.02-17.5Q469.02-22.55 471.45-26.65 473.87-30.75 478.12-33.08 482.37-35.4 487.67-35.4L487.67-35.4Q492.92-35.4 497.17-33.08 501.42-30.75 503.82-26.68 506.22-22.6 506.22-17.5L506.22-17.5Q506.22-12.4 503.82-8.33 501.42-4.25 497.17-1.93 492.92 0.4 487.67 0.4L487.67 0.4ZM487.67-4.05Q491.52-4.05 494.6-5.8 497.67-7.55 499.45-10.63 501.22-13.7 501.22-17.5L501.22-17.5Q501.22-21.3 499.45-24.38 497.67-27.45 494.6-29.2 491.52-30.95 487.67-30.95L487.67-30.95Q483.82-30.95 480.7-29.2 477.57-27.45 475.8-24.38 474.02-21.3 474.02-17.5L474.02-17.5Q474.02-13.7 475.8-10.63 477.57-7.55 480.7-5.8 483.82-4.05 487.67-4.05L487.67-4.05ZM530.17-35.4Q536.47-35.4 540.02-31.6 543.57-27.8 543.57-20.75L543.57-20.75 543.57 0 538.62 0 538.62-20.6Q538.62-25.7 536.12-28.33 533.62-30.95 529.17-30.95L529.17-30.95Q524.37-30.95 521.62-28.15 518.87-25.35 518.87-19.85L518.87-19.85 518.87 0 513.87 0 513.87-35 518.67-35 518.67-30.05Q522.22-35.4 530.17-35.4L530.17-35.4Z" fill="#ffffff" data-fill-palette-color="secondary"></path></g></svg></g></svg></g><g transform="matrix(1,0,0,1,0,32.420786342161705)"><svg viewBox="0 0 395.52 24.31409471519866" height="24.31409471519866" width="395.52"><g transform="matrix(1,0,0,1,0,0)"><svg width="395.52" viewBox="5 -28.75 468.489990234375 28.799999237060547" height="24.31409471519866" data-palette-color="#49beb7"><path d="M5-28.75L5-28.75 21-28.75 21-22.85 11.3-22.85 11.3-17.2 21-17.2 21-11.35 11.3-11.35 11.3 0 5 0 5-28.75ZM39.45-22.85L39.45-22.85 39.45-28.75 23.45-28.75 23.45-22.85 39.45-22.85ZM31.55-11.35L31.55-11.35 31.55-17.2 23.45-17.2 23.45-11.35 31.55-11.35ZM71.26-18.55L71.26-12.85 65.36-9.4 57.36-9.4 57.36-13.25 64.91-13.25 64.91-17.35 57.36-17.35 57.36-22.05 65.36-22.05 71.26-18.55ZM64.71-6.95L71.26-6.95 71.26-3.45 65.36 0 57.36 0 57.36-5.3 64.71-5.3 64.71-6.95ZM41.06-18.55L41.06-3.45 46.96 0 54.91 0 54.91-5.3 47.36-5.3 47.36-9.4 54.91-9.4 54.91-13.25 47.36-13.25 47.36-17.35 54.91-17.35 54.91-22.05 46.96-22.05 41.06-18.55ZM112.38-18.55L112.38-12.85 106.48-9.4 98.48-9.4 98.48-13.25 106.03-13.25 106.03-17.35 98.48-17.35 98.48-22.05 106.48-22.05 112.38-18.55ZM105.83-6.95L112.38-6.95 112.38-3.45 106.48 0 98.48 0 98.48-5.3 105.83-5.3 105.83-6.95ZM82.18-18.55L82.18-3.45 88.08 0 96.03 0 96.03-5.3 88.48-5.3 88.48-9.4 96.03-9.4 96.03-13.25 88.48-13.25 88.48-17.35 96.03-17.35 96.03-22.05 88.08-22.05 82.18-18.55ZM124.29 0.05L124.29-28.75 130.69-28.75 130.69 0.05 124.29 0.05ZM192.47-28.75L192.47-23.1 178.07-23.1 178.07 0 171.17 0 171.17-23.1 158.02-23.1 158.02-28.75 192.47-28.75ZM200.29 0.05L200.29-28.75 206.44-28.75 206.44-22 214.04-22 214.04-17.2 206.44-17.2 206.44 0.05 200.29 0.05ZM230.04 0.05L230.04-18.55 224.39-22 216.24-22 216.24-17.2 223.74-17.2 223.74 0.05 230.04 0.05ZM271.65-18.55L271.65-12.85 265.75-9.4 257.75-9.4 257.75-13.25 265.3-13.25 265.3-17.35 257.75-17.35 257.75-22.05 265.75-22.05 271.65-18.55ZM265.1-6.95L271.65-6.95 271.65-3.45 265.75 0 257.75 0 257.75-5.3 265.1-5.3 265.1-6.95ZM241.45-18.55L241.45-3.45 247.35 0 255.3 0 255.3-5.3 247.75-5.3 247.75-9.4 255.3-9.4 255.3-13.25 247.75-13.25 247.75-17.35 255.3-17.35 255.3-22.05 247.35-22.05 241.45-18.55ZM301.48-28.75L301.48-28.75 307.18-28.75 317.48-19.05 317.48-11.5 307.78-20.65 307.78 0 301.48 0 301.48-28.75ZM335.93-28.75L335.93-28.75 330.28-28.75 319.93-19.05 319.93-11.5 329.63-20.65 329.63 0 335.93 0 335.93-28.75ZM373.65-21.85L373.65 0 367.4 0 367.4-2.25 359.9 0 359.9-5.25 367.4-5.25 367.4-21.85 373.65-21.85ZM343.85-21.85L343.85-3.45 349.5 0 357.6 0 357.6-5.25 350.15-5.25 350.15-21.85 343.85-21.85ZM415.36-9.7L415.36-3.45 409.66 0 401.61 0 401.61-5.25 409.31-5.25 409.31-9.3 401.76-9.3 401.76-13.2 409.66-13.2 415.36-9.7ZM385.56-12.75L385.56-18.4 391.26-21.85 399.36-21.85 399.36-17.2 391.86-17.2 391.86-13.2 399.36-13.2 399.36-9.3 391.26-9.3 385.56-12.75ZM385.56-6.95L391.86-6.95 391.86-5.25 399.36-5.25 399.36 0 391.26 0 385.56-3.45 385.56-6.95ZM415.36-15.05L409.11-15.05 409.11-17.2 401.61-17.2 401.61-21.85 409.66-21.85 415.36-18.4 415.36-15.05ZM426.28-22L432.58-22 432.58 0.05 426.28 0.05 426.28-22ZM432.48-28.7L432.48-24.05 426.28-24.05 426.28-28.7 432.48-28.7ZM443.49-3.45L443.49-18.6 449.19-22.05 457.39-22.05 457.39-17.35 449.84-17.35 449.84-5.3 457.19-5.3 457.19 0 449.19 0 443.49-3.45ZM467.19-15.1L473.49-15.1 473.49-18.6 467.79-22.05 459.64-22.05 459.64-17.35 467.19-17.35 467.19-15.1ZM467.19-6.95L473.49-6.95 473.49-3.45 467.79 0 459.64 0 459.64-5.3 467.19-5.3 467.19-6.95Z" opacity="1" transform="matrix(1,0,0,1,0,0)" fill="#ffffff" class="undefined-text-1" data-fill-palette-color="secondary" id="text-1"></path></svg></g></svg></g></svg></g></svg></g><g></g></svg></g><defs></defs></svg><rect width="395.52" height="56.73488105736037" fill="none" stroke="none" visibility="hidden"></rect></g></svg></g></svg>