<svg xmlns="http://www.w3.org/2000/svg" version="1.1" xmlns:xlink="http://www.w3.org/1999/xlink" xmlns:svgjs="http://svgjs.com/svgjs" width="512" height="512" x="0" y="0" viewBox="0 0 43.349 43.349" style="enable-background:new 0 0 512 512" xml:space="preserve" fill-rule="evenodd"><g><path d="M38.618 23.336c1.366 0 2.319.653 2.319 1.243s-.953 1.252-2.32 1.252c-1.366 0-2.318-.662-2.318-1.252-.01-.59.952-1.243 2.319-1.243z" fill="#728c86" data-original="#000000" opacity="1"></path><path d="M40.885 11.647A21.518 21.518 0 0 1 43.35 21.67c0 3.976-1.077 7.693-2.95 10.902-.756-.03-3.169-.28-3.686-2.029 0-.01 0-.02-.01-.02-.032-.083-.736-1.968-1.906-2.672-.87-.548-2.36-1.625-2.691-2.184a1.085 1.085 0 0 1-.073-.829c.135-.414.549-.776 1.222-1.066.01-.01.03-.01.041-.02 2.257-1.347 2.371-1.74 2.402-1.875.642-2.402 2.33-8.665 5.187-10.229zm.839 12.932c0-1.14-1.367-2.04-3.106-2.03-1.75 0-3.117.89-3.117 2.03s1.367 2.04 3.117 2.04c1.74 0 3.106-.891 3.106-2.04zM19.95 36.174c1.42 0 2.62.653 2.62 1.43 0 .776-1.2 1.428-2.62 1.428-1.418 0-2.619-.652-2.619-1.429 0-.776 1.201-1.429 2.62-1.429z" fill="#728c86" data-original="#000000" opacity="1"></path><path d="M32.447 38.007c1.553-.104 2.381.186 2.827.528a21.566 21.566 0 0 1-13.605 4.814 21.6 21.6 0 0 1-13.997-5.135c-.104-.466-.383-2.236 1.2-3.21.011 0 .011-.01.021-.01.073-.052 1.709-1.221 2.092-2.536.3-.984.963-2.703 1.408-3.158.01-.01.32-.31.787-.29.435.031.89.331 1.346.9.01.011.02.032.03.042 1.885 1.833 2.3 1.833 2.434 1.833 10.85 0 11.616 2.412 12.165 4.172.342 1.139.683 2.216 3.292 2.05zm-12.496 1.812c1.915 0 3.406-.973 3.406-2.216 0-1.242-1.501-2.216-3.406-2.216-1.916 0-3.406.974-3.406 2.216 0 1.242 1.5 2.216 3.406 2.216zM20.83 19.04a3.093 3.093 0 0 1 3.086 3.085 3.093 3.093 0 0 1-3.085 3.085 3.093 3.093 0 0 1-3.085-3.085 3.086 3.086 0 0 1 3.085-3.085zM32.716 12.31a1.502 1.502 0 0 1 0 3.003 1.502 1.502 0 0 1 0-3.003z" fill="#728c86" data-original="#000000" opacity="1"></path><circle cx="18.398" cy="5.881" r="1.501" fill="#728c86" data-original="#000000" opacity="1"></circle><path d="M21.67 0a21.575 21.575 0 0 1 13.78 4.96 1.262 1.262 0 0 1-.352.683c-.363.372-1.18.797-2.992.673-2.61-.166-2.94.91-3.303 2.05-.549 1.76-1.305 4.172-12.165 4.172-.135 0-.549 0-2.433 1.832l-.031.031c-.456.57-.911.88-1.346.901a1.059 1.059 0 0 1-.787-.29c-.507-.507-1.19-2.453-1.408-3.147-.383-1.325-2.02-2.495-2.092-2.537-.01-.01-.01-.01-.02-.01-.973-.59-1.201-1.708-1.201-2.64 0-.621.103-1.15.155-1.377A21.594 21.594 0 0 1 21.669 0zm-3.272 8.169a2.289 2.289 0 1 0-.002-4.578 2.289 2.289 0 0 0 .002 4.578zM4.266 18.522a1.502 1.502 0 0 1 0 3.003 1.502 1.502 0 0 1 0-3.003z" fill="#728c86" data-original="#000000" opacity="1"></path><path d="M35.957 30.79c.59 1.958 2.816 2.434 3.976 2.548a21.894 21.894 0 0 1-4.048 4.69c-.704-.642-1.885-.911-3.49-.808-1.987.135-2.174-.445-2.495-1.49-.29-.922-.683-2.185-2.495-3.148-2.008-1.056-5.404-1.574-10.384-1.574-.26-.103-1.18-.89-1.895-1.594-.6-.746-1.242-1.15-1.915-1.18-.818-.042-1.356.496-1.367.517-.735.735-1.522 3.2-1.615 3.49-.29 1.014-1.656 2.018-1.78 2.111-1.295.797-1.657 2.06-1.657 3.075C2.609 33.472 0 27.871 0 21.68A21.591 21.591 0 0 1 6.564 6.16c-.093 1.17.062 2.91 1.543 3.83.424.301 1.532 1.233 1.78 2.113.094.28.87 2.744 1.605 3.479.02.02.518.528 1.284.528h.083c.673-.031 1.315-.425 1.915-1.18.725-.705 1.636-1.491 1.895-1.595 4.98 0 8.376-.518 10.384-1.574 1.812-.952 2.205-2.215 2.495-3.147.332-1.046.508-1.626 2.495-1.501 1.688.114 2.91-.197 3.603-.911.218-.228.363-.456.446-.673a21.505 21.505 0 0 1 4.4 5.445c-3.148 1.74-4.877 8.159-5.56 10.685-.166.228-1.17.9-2.03 1.418-.88.384-1.428.912-1.635 1.543-.248.787.135 1.44.145 1.46.518.9 2.702 2.298 2.95 2.454.922.528 1.543 2.112 1.595 2.257zm-.953-16.979a2.289 2.289 0 1 0-4.577.001 2.289 2.289 0 0 0 4.577 0zm-10.301 8.304a3.88 3.88 0 0 0-3.872-3.872c-2.133 0-3.872 1.739-3.872 3.872s1.739 3.872 3.872 3.872a3.88 3.88 0 0 0 3.872-3.872zm-18.15-2.092a2.289 2.289 0 1 0-4.577.002 2.289 2.289 0 0 0 4.578-.002z" fill="#728c86" data-original="#000000" opacity="1"></path></g></svg>