<svg xmlns="http://www.w3.org/2000/svg" version="1.1" xmlns:xlink="http://www.w3.org/1999/xlink" xmlns:svgjs="http://svgjs.com/svgjs" width="512" height="512" x="0" y="0" viewBox="0 0 922 922.499" style="enable-background:new 0 0 512 512" xml:space="preserve"><g><path d="M397.602 541.625c0 18.195-14.75 32.945-32.946 32.945-18.195 0-32.953-14.75-32.953-32.945 0-18.203 14.758-32.95 32.953-32.95 18.196 0 32.946 14.747 32.946 32.95ZM922.195 439.344l-31.61 27.394a865.702 865.702 0 0 0-86.82 86.813l-48.824 56.328a895.117 895.117 0 0 1-139.265 129.77 860.115 860.115 0 0 0-179.36 182.136c8.336.45 16.739.715 25.184.715 254.629-.293 460.965-206.625 461.246-461.254 0-7.336-.207-14.637-.55-21.902ZM628.23 854.625h-32.949v-32.957h32.95ZM842.38 673.418h-32.942v-32.953h32.942Zm0 0" style="stroke:none;fill-rule:nonzero;fill-opacity:1;" fill="#728c86" data-original="#000000" opacity="1"></path><path d="M581.34 501.637A890.998 890.998 0 0 0 840.68 253.39l18.12-26.121A464.683 464.683 0 0 0 698.157 65.508L652.148 95.55a738.389 738.389 0 0 0-216.492 216.472A771.581 771.581 0 0 1 209.461 538.13 742.06 742.06 0 0 0 53.125 675.395a464.402 464.402 0 0 0 185.559 189.55l75.496-108.332a924.685 924.685 0 0 1 267.16-254.976Zm145.73-273h32.942v32.941H727.07Zm-181.207 82.36h32.946v32.952h-32.946ZM249.34 772.253h-32.945v-32.95h32.945ZM364.656 475.73c36.387 0 65.895 29.5 65.895 65.895 0 36.39-29.508 65.898-65.895 65.898-36.386 0-65.894-29.507-65.894-65.898 0-36.395 29.508-65.895 65.894-65.895ZM249.34 343.95c0 9.09-7.375 16.464-16.469 16.464-9.094 0-16.476-7.375-16.476-16.465 0-9.11 7.382-16.476 16.476-16.476s16.469 7.367 16.469 16.476Zm0 0" style="stroke:none;fill-rule:nonzero;fill-opacity:1;" fill="#728c86" data-original="#000000" opacity="1"></path><path d="M191.523 510.54a738.399 738.399 0 0 0 216.528-216.524A771.631 771.631 0 0 1 634.152 67.898l31.137-20.293A458.24 458.24 0 0 0 461.5 0c-6.914 0-13.797.219-20.652.523a861.22 861.22 0 0 0-57.215 59.88L334.82 116.75a894.257 894.257 0 0 1-139.27 129.738A860.342 860.342 0 0 0 7.93 439.918L.527 450.414c-.078 3.621-.277 7.2-.277 10.832a458.463 458.463 0 0 0 37.48 181.965 774.67 774.67 0 0 1 153.793-132.672Zm140.18-331.321h32.953v32.949h-32.953Zm-98.832 115.304c27.293 0 49.422 22.125 49.422 49.426 0 27.29-22.129 49.418-49.422 49.418-27.297 0-49.422-22.129-49.422-49.418 0-27.297 22.125-49.426 49.422-49.426Zm-131.785 82.372h32.945v32.94h-32.945ZM175.813 220.148a863.334 863.334 0 0 0 134.14-124.984l48.828-56.34a822.09 822.09 0 0 1 30.242-33.078C192.797 37.328 38.711 190.786 6.328 386.88a891.674 891.674 0 0 1 169.484-166.73ZM595.926 713.285A862.085 862.085 0 0 0 730.02 588.31l48.82-56.34a899.397 899.397 0 0 1 90.11-90.121l49.425-42.832a457.685 457.685 0 0 0-42.105-139.223l-8.57 12.371a924.173 924.173 0 0 1-268.84 257.383A890.973 890.973 0 0 0 341.25 775.46l-72.828 104.496a456.8 456.8 0 0 0 129.941 38.102l2.778-3.965a893.18 893.18 0 0 1 194.785-200.809ZM611.75 574.57h32.95v32.953h-32.95Zm0 0" style="stroke:none;fill-rule:nonzero;fill-opacity:1;" fill="#728c86" data-original="#000000" opacity="1"></path></g></svg>