<svg xmlns="http://www.w3.org/2000/svg" version="1.1" xmlns:xlink="http://www.w3.org/1999/xlink" xmlns:svgjs="http://svgjs.com/svgjs" width="512" height="512" x="0" y="0" viewBox="0 0 512 512" style="enable-background:new 0 0 512 512" xml:space="preserve"><g><path d="M178.091 64.799c44.008-4.308 88.344-14.325 133.084-13.667 27.455.392 112.742 12.656 113.335 12.752C379.475 24.334 320.514.279 256 .279c-62.739 0-120.233 22.742-164.771 60.365.534.073 27.3 9.882 86.862 4.155z" fill="#728c86" data-original="#000000" opacity="1"></path><path d="M97.465 109.345c39.192-4.721 78.547-12.858 118.366-14.521 49.998-2.039 99.954 6.29 148.328 14.349 47.852 7.975 55.207 9.447 109.385 12.594-10.414-16.816-22.693-32.361-36.596-46.295-.535-.079-104.006-13.372-125.93-13.685-43.331-.696-87.623 9.289-131.898 13.615-74.679 7.176-96.212-6.825-96.764-6.916-14.297 13.249-27.105 28.08-38.085 44.258 10.845-.355 19.372.659 53.194-3.399z" fill="#728c86" data-original="#000000" opacity="1"></path><path d="M362.406 119.682c-47.839-7.976-97.342-16.206-146.132-14.214-39.075 1.637-78.167 9.712-117.539 14.458-29.659 3.558-45.444 3.166-61.45 3.68-5.486 9.03-10.366 18.459-14.72 28.173 18.897 1.812 43.47-.592 57.492-2.817 43.509-6.932 118.339-37.973 219.891-.323 6.535 2.419 26.419 9.781 30.051 26.789 2.502 11.904-3.762 24.832-17.184 35.493-45.485 36.319-107.655 26.647-158.235 44.384-42.266 14.807-79.169 49.342-103.902 97.253-2.065 4.02-9.007 18.858-15.276 32.54 8.914 15.172 19.303 29.378 31.047 42.349 21.569-47.853 65.856-96.817 110.904-121.739 66.995-37.137 143.786-46.132 203.201-49.826 39.238-2.417 92.552.239 131.06 4.409.024-1.434.109-2.853.109-4.292 0-44.641-11.523-86.628-31.708-123.191-59.703-3.316-67.141-4.708-117.609-13.126zM343.249 405.085c-42.605-2.752-88.185 10.967-124.973 37.62-14.723 10.676-35.869 34.252-50.8 53.199 27.598 10.217 57.417 15.817 88.524 15.817 69.904 0 133.316-28.223 179.521-73.833-26.424-17.472-64.052-30.994-92.272-32.803z" fill="#728c86" data-original="#000000" opacity="1"></path><path d="M252.843 352.184c-45.187 19.483-107.501 60.177-142.992 113.47 14.72 10.293 30.536 19.116 47.288 26.166 15.152-19.535 38.111-45.579 54.884-57.741 39.337-28.5 86.182-42.568 131.914-39.629 30.449 1.957 71.159 16.727 99.108 35.663 22.852-24.532 40.973-53.517 52.835-85.531-86.962-24.852-155.89-29.947-243.037 7.602z" fill="#728c86" data-original="#000000" opacity="1"></path><path d="M248.628 342.403c95.098-41.008 165.281-32.02 250.714-7.909a254.07 254.07 0 0 0 11.906-63.525c-38.054-4.169-91.114-6.849-130.035-4.452-58.296 3.621-133.568 12.408-198.7 48.515-43.769 24.217-88.331 74.325-108.055 120.853a257.765 257.765 0 0 0 26.785 23.504c36.882-55.068 100.936-96.963 147.385-116.986zM41.203 347.679c25.998-50.351 65.007-86.723 109.854-102.425 51.141-17.933 112.936-8.991 155.117-42.667 3.756-2.986 15.79-13.574 13.402-24.952-1.618-7.57-9.25-13.792-23.334-19.005-97.657-36.221-168.235-6.497-214.511.853-4.802.76-37.901 5.742-63.472 2.496C6.702 191.103.279 222.806.279 256c0 42.348 10.413 82.295 28.721 117.512 5.288-11.457 10.391-22.305 12.203-25.833z" fill="#728c86" data-original="#000000" opacity="1"></path></g></svg>