<svg xmlns="http://www.w3.org/2000/svg" version="1.1" xmlns:xlink="http://www.w3.org/1999/xlink" xmlns:svgjs="http://svgjs.com/svgjs" width="512" height="512" x="0" y="0" viewBox="0 0 512 512" style="enable-background:new 0 0 512 512" xml:space="preserve" class=""><g><path d="M470.013 283.728c-40.007 11.707-83.685 17.397-133.527 17.397-22.335 0-40.326-4.052-53.475-12.043-14.17-8.612-21.974-21.449-21.974-36.147 0-35.482 47.002-72.185 125.657-72.185l.524.001c46.1 0 69.22-19.456 90.262-53.574a255.55 255.55 0 0 0-21.784-31.567c-25.947 32.892-68.941 67.35-140.132 59.01a14.378 14.378 0 0 1-.874-.129c-22.07-3.914-44.404.815-62.879 13.321-11.147 7.546-52.711 32.775-119.497 40.6a341.305 341.305 0 0 1-39.747 2.316c-28.569 0-57.386-3.559-86.322-10.642C2.223 218.238.153 236.959.153 256c0 25.975 3.852 51.355 11.268 75.5a208.906 208.906 0 0 1 16.164-6.302c24.156-8.251 48.263-11.31 71.649-9.083 38.498 3.66 64.916 21.102 71.136 26.923 13.674 12.8 52.751 39.668 120.255 13.009 61.919-26.342 127.313-35.3 194.369-26.628 5.368.694 10.635 1.49 15.801 2.366 6.264-20.308 10.008-41.493 11.053-63.174a358.32 358.32 0 0 1-41.835 15.117zM86.153 281c-8.284 0-15-6.716-15-15s6.716-15 15-15 15 6.716 15 15-6.716 15-15 15zm100 30c-24.813 0-45-20.187-45-45s20.187-45 45-45 45 20.187 45 45-20.187 45-45 45zm60 30c-8.284 0-15-6.716-15-15s6.716-15 15-15 15 6.716 15 15-6.716 15-15 15z" fill="#728c86" data-original="#000000" class="" opacity="1"></path><circle cx="186.153" cy="266" r="15" fill="#728c86" data-original="#000000" class="" opacity="1"></circle><path d="M302.198 383.725c-.118.051-.236.1-.356.146-36.128 14.307-70.214 17.263-101.309 8.783-25.712-7.011-42.656-20.245-50.538-27.595-.976-.78-21.175-16.43-55.216-19.223-23.82-1.954-48.184 2.665-72.885 13.742 12.617 28.51 30.532 54.733 53.239 77.441 1.087 1.087 2.191 2.15 3.294 3.214 12.045-10.261 25.678-17.756 40.866-22.409 31.161-9.546 67.731-7.171 111.797 7.258 9.359 3.062 19.119 3.118 27.483.15C309.15 407.547 363.638 414.99 391.622 421c17.158 3.685 33.287 8.634 47.222 14.306 21.7-22.099 38.927-47.441 51.208-74.934-53.221-8.197-117.729-6.52-187.854 23.353zM387.269 210.751l-.622-.001c-63.644 0-95.609 27.045-95.609 42.185 0 3.928 2.542 7.464 7.556 10.512 5.764 3.503 17.017 7.679 37.893 7.679 68.392 0 125.567-11.331 174.898-35.067-2.077-27.131-8.374-53.415-18.589-78.077-4.493 6.105-9.247 11.814-14.397 17.077-23.819 24.341-52.789 35.692-91.13 35.692zM120.711 96.728c43.622 12.119 83.745-13.051 98.851-22.526 20.953-13.144 45.011-18.244 67.738-14.364 16.832 2.872 52.594 3.405 82.363-33.426C334.811 9.141 296.186 0 256.153 0c-67.176 0-130.39 25.715-178.439 72.462 13.705 12.001 28.058 20.115 42.997 24.266z" fill="#728c86" data-original="#000000" class="" opacity="1"></path><path d="M234.996 142.97c24.843-16.816 54.819-23.236 84.474-18.098 59.742 6.844 94.267-22.644 115.804-51.744-12.188-11.944-25.359-22.526-39.333-31.671-10.926 14.407-23.56 25.844-37.829 34.202-22.761 13.332-49.704 18.214-75.861 13.75-15.454-2.638-32.052.986-46.748 10.206-14.571 9.141-48.497 30.421-90.433 30.421a120.52 120.52 0 0 1-32.391-4.404c-19.499-5.418-37.932-15.816-55.216-31.091-18.779 23.022-33.218 48.836-42.906 76.432 102.286 24.336 183.376-2.914 220.439-28.003zM390.16 451.414c-25.9-6.037-76.139-13.79-121.62 2.115-14.517 5.149-31.156 5.182-46.786.063-37.985-12.438-68.626-14.757-93.675-7.083-9.707 2.973-18.535 7.485-26.538 13.561C145.808 493.753 199.574 512 256.153 512c57.76 0 112.6-19.002 157.382-54.045-7.029-2.324-14.826-4.549-23.375-6.541z" fill="#728c86" data-original="#000000" class="" opacity="1"></path></g></svg>